<svg xmlns="http://www.w3.org/2000/svg" height="1024" preserveAspectRatio="none" style="display: block;" version="1.1" viewBox="0 0 2048 2048" width="1024">
<defs>
	<linearGradient gradientUnits="userSpaceOnUse" id="Gradient1" x1="1258.13" x2="1507.86" y1="839.377" y2="930.158">
		<stop class="stop0" offset="0" stop-color="rgb(51,97,204)" stop-opacity="1"></stop>
		<stop class="stop1" offset="1" stop-color="rgb(35,139,241)" stop-opacity="1"></stop>
	</linearGradient>
	<linearGradient gradientUnits="userSpaceOnUse" id="Gradient2" x1="841.788" x2="1068.77" y1="984.694" y2="953.645">
		<stop class="stop0" offset="0" stop-color="rgb(55,45,112)" stop-opacity="1"></stop>
		<stop class="stop1" offset="1" stop-color="rgb(59,65,149)" stop-opacity="1"></stop>
	</linearGradient>
	<linearGradient gradientUnits="userSpaceOnUse" id="Gradient3" x1="1005.1" x2="1197.43" y1="841.906" y2="969.879">
		<stop class="stop0" offset="0" stop-color="rgb(59,55,129)" stop-opacity="1"></stop>
		<stop class="stop1" offset="1" stop-color="rgb(56,89,189)" stop-opacity="1"></stop>
	</linearGradient>
</defs>
<path d="M 0 0 L 2048 0 L 2048 2048 L 0 2048 L 0 0 z" fill="rgb(255,255,255)" transform="translate(0,0)"></path>
<path d="M 509.019 655.072 L 509.308 655.335 C 510.58 659.482 502.376 674.942 500.09 679.767 C 528.226 680.255 557.251 679.859 585.453 679.791 C 592.426 670.241 597.914 667.521 610.304 667.767 C 649.355 668.413 689.553 668.286 728.492 667.91 C 757.224 667.633 777.034 667.893 800.178 687.293 C 824.81 707.941 848.266 731.781 871.29 754.223 C 913.518 794.989 955.456 836.053 997.101 877.414 L 962.552 913.281 C 952.103 902.874 941.556 892.565 930.911 882.357 C 895.533 848.31 860.438 813.969 825.629 779.339 C 811.025 764.728 791.136 741.875 776.556 729.515 C 770.864 724.74 764.371 721.011 757.378 718.501 C 739.21 711.987 697.872 715.859 676.046 715.018 C 654.017 714.169 617.724 718.088 594.877 714.657 C 591.253 714.113 586.924 704.805 584.995 701.17 L 499.036 701.153 C 503.189 710.024 507.125 718.996 510.839 728.06 C 486.777 719.331 447.842 702.962 425.165 690.967 C 448.735 678.462 483.32 666.179 509.019 655.072 z" fill="rgb(55,50,122)" transform="translate(0,0)"></path>
<path d="M 581.826 717.015 C 582.127 720.24 574.572 737.891 572.814 742.491 C 600.131 743.061 629.464 742.263 656.888 741.607 C 661.647 734.016 668.17 728.669 677.542 728.815 C 705.278 729.245 733.73 727.231 759.916 738.225 C 762.879 739.872 772.339 742.844 774.602 744.791 C 837.215 798.631 895.229 864.259 956.676 919.192 C 947.26 929.982 931.761 944.822 921.373 955.427 C 911.784 943.735 901.071 934.053 890.133 923.637 C 857.381 892.282 825.816 859.306 792.95 827.969 C 779.451 816.02 766.482 798.942 751.915 788.552 C 729.633 772.659 700.879 777.048 675.45 775.663 C 666.899 775.197 663.234 771.236 658.458 764.931 C 630.032 764.072 601.589 763.947 573.156 764.556 C 576.041 773.28 579.384 781.657 582.719 790.209 C 560.501 779.446 518.338 760.402 495.567 752.93 C 524.147 740.377 553.167 729.228 581.826 717.015 z" fill="rgb(55,50,122)" transform="translate(0,0)"></path>
<path d="M 1534.47 655.124 C 1559.53 664.041 1583.75 675.26 1608.62 684.701 C 1613.47 686.543 1618.23 688.529 1622.87 690.862 C 1595.56 702.23 1560.74 717.721 1533.79 730.111 L 1544.49 705.674 C 1545.49 703.397 1545.34 704.267 1545.15 701.722 C 1539.58 700.52 1484.25 701.016 1474.98 701.016 C 1472.3 704.969 1468.99 711.198 1464.46 713.144 C 1454.98 717.216 1438.61 715.519 1428.31 715.495 C 1403.91 715.438 1305.23 711.541 1287.22 719.331 C 1270.28 726.662 1246.28 755.213 1232.56 768.684 C 1219.23 781.78 1205.53 794.543 1192.05 807.49 C 1178.24 795.37 1168.79 786.496 1155.92 773.438 C 1184.54 745.177 1211.57 716.727 1241.86 690 C 1270.7 664.548 1294.31 668.144 1330.4 668.228 L 1383.49 668.089 C 1405.61 668.01 1437.81 666.073 1458.99 668.378 C 1470.3 669.609 1466.94 679.131 1480.71 680 C 1500.18 678.7 1525.91 680.001 1546.05 680.087 C 1542.62 672.664 1538.27 661.696 1534.47 655.124 z" fill="rgb(56,83,179)" transform="translate(0,0)"></path>
<path d="M 1534.47 655.124 C 1559.53 664.041 1583.75 675.26 1608.62 684.701 C 1613.47 686.543 1618.23 688.529 1622.87 690.862 C 1595.56 702.23 1560.74 717.721 1533.79 730.111 L 1544.49 705.674 C 1545.86 712.676 1539.67 717.607 1537.55 724.964 C 1540.91 725.688 1599.17 700.178 1603.11 696.462 C 1605.78 693.958 1607.22 690.412 1607.05 686.756 C 1602.75 683.797 1590.35 679.377 1584.73 677.022 C 1569.32 670.561 1553.72 664.516 1538.41 657.75 C 1541.87 666.291 1545.02 674.014 1548.98 682.373 C 1539.57 682.688 1530.58 681.646 1521.16 681.314 C 1509.05 680.888 1492.26 682.713 1480.71 680 C 1500.18 678.7 1525.91 680.001 1546.05 680.087 C 1542.62 672.664 1538.27 661.696 1534.47 655.124 z" fill="rgb(49,104,209)" transform="translate(0,0)"></path>
<path d="M 1316.71 1219.85 C 1358.02 1214.07 1396.19 1242.91 1401.92 1284.23 C 1407.65 1325.55 1378.77 1363.68 1337.44 1369.36 C 1296.18 1375.03 1258.13 1346.21 1252.41 1304.96 C 1246.69 1263.71 1275.46 1225.62 1316.71 1219.85 z" fill="rgb(57,53,123)" transform="translate(0,0)"></path>
<path d="M 1315.49 1228.59 C 1352.14 1222.14 1387.06 1246.69 1393.39 1283.37 C 1399.72 1320.05 1375.04 1354.88 1338.35 1361.09 C 1301.82 1367.26 1267.19 1342.73 1260.89 1306.23 C 1254.59 1269.73 1279.01 1235.01 1315.49 1228.59 z" fill="rgb(255,255,255)" transform="translate(0,0)"></path>
<path d="M 922.957 1219.93 C 964.272 1214.06 1002.49 1242.89 1008.17 1284.23 C 1013.86 1325.58 984.85 1363.66 943.484 1369.16 C 902.378 1374.63 864.585 1345.84 858.935 1304.76 C 853.284 1263.68 881.902 1225.76 922.957 1219.93 z" fill="rgb(57,53,123)" transform="translate(0,0)"></path>
<path d="M 922.37 1228.47 C 958.872 1222.11 993.618 1246.55 999.961 1283.06 C 1006.3 1319.56 981.842 1354.29 945.333 1360.62 C 908.853 1366.94 874.154 1342.5 867.815 1306.02 C 861.476 1269.54 885.897 1234.83 922.37 1228.47 z" fill="rgb(255,255,255)" transform="translate(0,0)"></path>
<path d="M 1089.02 785.395 C 1137.38 779.939 1186.64 800.505 1212.08 842.901 C 1226.44 866.772 1230.66 895.393 1223.8 922.392 C 1216.56 950.747 1202.52 969.16 1181.08 988.24 C 1154.81 1011.63 1129.48 1044.3 1099.2 1062.1 C 1102.89 1057.82 1106.56 1052.86 1110.05 1048.37 C 1130.6 1018.17 1136.22 996.397 1139.19 960.63 C 1148.71 952.958 1162.03 938.996 1168.3 928.737 C 1188.15 896.228 1172.99 859.266 1140.63 842.486 C 1115.54 829.476 1081.3 832.598 1055.15 840.771 C 1044.71 830.576 1033.91 819.413 1023.78 808.887 C 1048.11 793.541 1060.37 788.222 1089.02 785.395 z" fill="url(#Gradient3)" transform="translate(0,0)"></path>
<path d="M 844.646 889.472 C 855.461 898.54 874.297 918.78 884.869 929.468 C 884.479 956.278 889.162 978.367 910.883 996.734 C 938.937 1020.46 985.045 1018.18 1008.72 989.365 C 1017.64 978.506 1024.06 961.167 1022.63 947.022 C 1032.31 936.148 1042.29 925.539 1052.55 915.206 C 1068.19 933.739 1073.75 947.152 1069.6 971.719 C 1068.7 976.068 1067.83 979.88 1066.43 984.118 C 1057.3 1012.55 1036.95 1036.02 1010.1 1049.08 C 982.202 1062.77 946.889 1065.25 917.526 1055.04 C 886.421 1044.24 860.925 1021.46 846.713 991.756 C 831.925 960.419 832.979 921.556 844.646 889.472 z" fill="url(#Gradient2)" transform="translate(0,0)"></path>
<path d="M 1474.52 719.156 C 1493.56 723.825 1507.92 731.709 1525.74 739.244 C 1536.91 743.97 1548.4 748.229 1559.69 752.898 C 1528.18 765.578 1501.87 777.401 1470.92 791.184 C 1475.4 781.818 1478.39 774.581 1482.1 765.001 C 1453.49 764.376 1424.87 764.296 1396.26 764.762 C 1387.66 775.019 1380.75 777.023 1367.49 776.357 C 1311.96 773.567 1298.5 782.399 1259.35 821.174 C 1245.67 835.349 1238.52 843.982 1228.7 860.918 C 1220.8 839.96 1212.68 829.656 1198.59 813.049 C 1216.83 794.331 1242.65 768.562 1261.71 752.255 C 1287.36 732.733 1321.88 727.074 1353.24 727.875 C 1373.31 728.388 1384.65 724.306 1397.03 742.045 C 1424.51 743.308 1455.95 742.819 1483.56 742.873 C 1479.21 733.572 1477.03 729.058 1474.52 719.156 z" fill="rgb(56,83,179)" transform="translate(0,0)"></path>
<path d="M 1012.96 687.345 C 1059.89 684.322 1081.79 707.139 1112.11 737.986 C 1087.01 726.804 1062.92 721.211 1035.78 727.545 C 1008.87 733.825 991.913 752.214 971.309 768.83 C 991.857 790.802 1018.91 815.893 1040.72 837.347 L 1046.03 843.05 C 1026.21 851.41 1019.76 856.775 1003.45 870.355 C 990.944 858.95 979.696 846.079 967.6 834.362 C 945.126 812.59 922.865 791.038 900.975 768.669 C 939.546 736.132 958.796 693.315 1012.96 687.345 z" fill="rgb(57,53,123)" transform="translate(0,0)"></path>
<path d="M 1057.89 910.028 C 1068.62 898.863 1079.87 886.596 1090.73 875.714 C 1097.08 881.427 1103.01 886.835 1108.25 893.621 C 1144.99 941.195 1132.35 1012.4 1093.57 1054.79 C 1072 1077.92 1042.2 1091.66 1010.59 1093.05 C 980.252 1094.32 948.915 1086.58 924.101 1068.69 C 915.477 1063.17 936.523 1067.99 937.995 1068.25 C 955.161 1071.25 969.194 1067.82 985.887 1065.67 C 1004.58 1059.9 1019.93 1054.57 1034.9 1041.68 C 1075.58 1006.64 1101.35 953.774 1057.89 910.028 z" fill="rgb(55,50,122)" transform="translate(0,0)"></path>
<path d="M 924.101 1068.69 C 915.477 1063.17 936.523 1067.99 937.995 1068.25 C 955.161 1071.25 969.194 1067.82 985.887 1065.67 C 987.165 1069.25 966.172 1070.1 962.936 1070.76 C 950.254 1073.35 936.2 1068.19 924.101 1068.69 z" fill="rgb(57,53,123)" transform="translate(0,0)"></path>
<path d="M 514.339 1157.25 C 516.112 1157.84 517.18 1158.4 518.873 1159.19 C 521.368 1163.35 535.597 1195.8 537.024 1200.15 C 543.659 1220.37 610.814 1361.39 609.976 1366.77 C 607.015 1368.5 607.615 1367.91 603.583 1367.8 C 601.212 1366.33 578.84 1316.28 576 1310.34 L 519.5 1310.13 C 498.16 1309.94 476.819 1310.06 455.482 1310.47 C 449.73 1323.17 436.796 1356.37 430.297 1366.15 C 427.499 1367.83 426.706 1367.41 423.398 1367.24 L 422.505 1365.45 C 423.384 1360.11 446.21 1310.69 449.492 1303.33 C 470.797 1254.5 492.413 1205.8 514.339 1157.25 z" fill="rgb(57,53,123)" transform="translate(0,0)"></path>
<path d="M 515.949 1174.89 C 521.186 1181.88 533.273 1211.62 537.171 1220.72 L 572.186 1302.06 C 554.1 1302.31 535.622 1302.15 517.503 1302.18 L 458.92 1302.22 C 465.73 1288.9 474.306 1267.8 480.503 1253.68 C 491.948 1227.25 503.764 1200.99 515.949 1174.89 z" fill="rgb(255,255,255)" transform="translate(0,0)"></path>
<path d="M 579.619 840.064 L 580.286 841.091 C 577.41 848.891 574.65 856.734 572.007 864.616 C 596.133 865.299 621.702 864.889 645.961 864.843 C 649.876 859.318 651.851 857.599 656.748 852.964 L 739.913 853.269 C 795.733 853.472 821.033 844.018 829.565 909.334 C 809.254 896.571 781.359 899.971 757.185 900.168 C 727.54 900.128 687.232 901.14 657.24 898.619 C 652.074 898.184 647.399 889.985 645.103 885.498 C 622.57 884.782 599.198 885.067 576.596 885.055 C 581.35 894 585.95 903.026 590.395 912.129 C 564.924 899.152 539.865 885.543 514.461 872.409 C 530.648 862.781 561.978 848.664 579.619 840.064 z" fill="rgb(55,50,122)" transform="translate(0,0)"></path>
<path d="M 1471.59 840.303 C 1478.33 842.293 1528.18 868.503 1534.77 872.378 C 1510.07 885.281 1486.17 899.227 1461.73 912.578 C 1464.5 904.006 1469.64 893.441 1473.43 885.045 C 1451.67 885.256 1429.9 885.236 1408.13 884.984 C 1406.53 888.632 1404.95 892.103 1402.01 894.895 C 1393.5 902.987 1321.88 900.362 1305.25 900.397 C 1283.17 900.537 1253.22 897.341 1236.11 911.92 C 1238.62 883.443 1242.45 859.231 1276.61 854.862 C 1299.16 852.449 1322.55 852.947 1345.27 853.183 C 1362.1 853.358 1383.12 852.203 1399.61 854.384 C 1401.93 856.932 1405.81 862.998 1407.9 866.074 C 1431.28 866.597 1456.53 866.091 1480.05 866.019 C 1478.47 858.849 1474.12 847.775 1471.59 840.303 z" fill="url(#Gradient1)" transform="translate(0,0)"></path>
<path d="M 683.806 1219.32 C 686.034 1219.12 688.267 1219 690.503 1218.95 C 726.103 1218.45 755.095 1244.28 759.57 1279.8 C 760.398 1286.38 760.256 1293.31 760.287 1299.96 C 717.273 1299.59 674.257 1299.6 631.244 1300.01 C 637.621 1346.96 666.375 1365.72 712.086 1360.37 C 723.367 1357.32 730.51 1353.81 739.364 1346.27 C 743.218 1342.99 746.962 1339.05 752.089 1338.94 L 753.114 1340.44 C 752.945 1341.58 752.442 1342.64 751.828 1343.61 C 742.652 1357.76 726.962 1364.79 711.197 1367.97 C 669.78 1376.44 630.066 1350.81 623.907 1308.24 C 617.764 1265.79 639.649 1226.16 683.806 1219.32 z" fill="rgb(57,53,123)" transform="translate(0,0)"></path>
<path d="M 683.315 1227.19 C 727.581 1224.83 748.566 1250.66 753.175 1292.2 L 700.138 1292.42 C 677.029 1292.72 653.916 1292.65 630.809 1292.21 C 633.975 1259.44 649.554 1234.53 683.315 1227.19 z" fill="rgb(255,255,255)" transform="translate(0,0)"></path>
<path d="M 1090.19 843.396 C 1099.46 842.603 1108.27 842.959 1117.55 843.16 C 1087.47 863.604 1073.19 881.074 1048.58 907.127 C 1030.8 925.638 1013.19 944.308 995.742 963.133 C 986.041 973.47 965.383 995.596 954.563 1003.85 C 949.923 1003.1 944.792 1001.67 940.186 1000.52 C 927.193 995.981 916.532 990.477 908.14 979.287 C 921.122 965.496 936.245 951.467 950.032 937.985 C 998.743 890.352 1016.87 850.606 1090.19 843.396 z" fill="rgb(55,50,122)" transform="translate(0,0)"></path>
<path d="M 1404.15 781.475 C 1432.09 792.481 1456.59 802.102 1484 814.602 C 1458.16 825.543 1429.21 839.538 1403.19 848.752 C 1406.3 841.877 1410.59 833.056 1413.13 826.132 C 1388.63 825.933 1364.12 825.863 1339.62 825.924 C 1335.8 833.33 1331.11 839.343 1323.62 843.413 C 1293.77 843.88 1261.73 840.623 1240.13 864.806 L 1237.28 863.946 C 1242.96 853.039 1248.5 844.739 1256.56 835.321 C 1275.44 813.269 1305.04 779.75 1336.45 802.752 L 1412.86 803.459 C 1410.12 796.447 1407.15 788.288 1404.15 781.475 z" fill="rgb(49,104,209)" transform="translate(0,0)"></path>
<path d="M 650.297 781.974 C 651.038 782.189 650.606 781.972 651.274 783.047 C 648.225 789.653 645.268 796.301 642.406 802.99 C 663.284 803.295 685.496 803.622 706.331 802.665 C 714.801 801.089 717.21 797.191 726.462 796.436 C 753.354 794.243 776.15 827.29 795.701 844.485 C 776.224 843.417 756.033 844.62 736.519 844.189 C 725.616 843.948 720.109 843.859 712.717 836.272 C 710.315 832.908 709.109 829.949 707.384 826.248 C 685.77 825.971 664.154 825.914 642.539 826.077 C 645.413 834.41 649.268 841.472 652.141 850.435 C 640.563 844.969 628.328 838.991 616.648 833.944 C 601.224 827.279 587.691 822.404 572.899 814.081 C 599.457 802.902 623.239 792.632 650.297 781.974 z" fill="rgb(55,50,122)" transform="translate(0,0)"></path>
<path d="M 1056.97 733.399 C 1104.72 732.344 1125.11 753.19 1156.63 784.474 C 1121.74 774.598 1103.19 772.635 1067.59 778.85 C 1045.15 784.767 1036.06 789.655 1017.11 801.876 C 1006.13 791.255 995.296 780.494 984.597 769.596 C 1011.81 747.772 1019.6 736.595 1056.97 733.399 z" fill="rgb(55,50,122)" transform="translate(0,0)"></path>
<path d="M 1468.78 1358.07 C 1473.52 1345.82 1512.92 1222.91 1516.05 1221.56 C 1518.29 1220.59 1521.42 1220.74 1523.64 1221.64 C 1525.71 1222.47 1567.75 1344.02 1572.93 1357.43 C 1577.3 1347.1 1582.32 1330.02 1586.01 1318.87 L 1605.03 1262.28 C 1607.79 1253.84 1615.71 1220.88 1623.56 1219.97 L 1625.85 1221.83 C 1626.96 1225.56 1626.43 1224.74 1624.79 1229.29 C 1620.29 1240.22 1616.54 1255.07 1612.33 1266.48 C 1600.63 1298.21 1590.2 1336.11 1577.83 1367.21 C 1575.46 1369.24 1574.17 1368.43 1570.06 1368.45 C 1566.04 1365.77 1547.13 1308.44 1543.32 1298.4 C 1535.38 1277.5 1527.88 1253.87 1519.28 1232.79 C 1514.09 1248.54 1475.41 1366.73 1472.53 1369.01 C 1469.43 1368.8 1468.03 1368.86 1465.03 1367.83 C 1461.69 1362.77 1452.7 1337.9 1450.19 1330.95 C 1436.96 1294.28 1424.32 1257.7 1410.84 1221.06 C 1414.76 1220.82 1415.67 1220.65 1419.46 1221.37 C 1421.6 1223.78 1463.77 1343.86 1468.78 1358.07 z" fill="rgb(55,50,122)" transform="translate(0,0)"></path>
<path d="M 1127.91 846.826 C 1148.33 846.757 1172.29 882.02 1168.19 903.006 C 1163.3 928.123 1154.99 930.921 1139.25 948.627 C 1136.84 913.959 1119.98 892.565 1096.41 869.011 C 1108.98 858.318 1113.31 854.5 1127.91 846.826 z" fill="rgb(55,50,122)" transform="translate(0,0)"></path>
<path d="M 505.2 779.404 C 502.714 786.898 500.306 796.448 498.124 804.18 C 524.373 804.319 550.621 804.656 576.865 805.194 C 570.232 808.103 563.179 811.637 556.594 814.772 C 561.498 817.03 566.19 819.442 571.384 820.851 L 568.635 824.254 C 545.766 822.64 520.562 825.151 497.151 822.792 C 499.862 831.829 503.252 841.207 506.327 850.169 C 499.711 847.509 486.386 839.454 479.835 835.667 C 466.42 828.038 453.112 820.223 439.915 812.223 C 461.866 798.652 481.872 790.004 505.2 779.404 z" fill="rgb(55,50,122)" transform="translate(0,0)"></path>
<path d="M 440.515 717.024 C 437.26 725.694 434.108 734.402 431.06 743.146 C 449.133 742.873 467.211 742.963 485.281 743.415 C 487.314 743.356 496.359 743.008 497.307 743.824 C 497.319 745.073 493.158 746.251 492.176 746.595 C 488.863 748.545 485.172 750.607 481.951 752.634 C 487.852 755.29 494.188 758.441 500.4 760.08 C 501.692 759.961 504.017 759.449 504 761.408 C 503.129 762.525 493.184 761.974 491.558 761.919 L 432.128 762.17 C 434.756 771.772 437.584 779.959 440.841 789.321 C 424.118 780.288 407.931 769.4 391.17 760.331 C 385.642 757.34 380.044 754.023 374.886 750.441 C 393.589 738.471 420.395 726.445 440.515 717.024 z" fill="rgb(55,50,122)" transform="translate(0,0)"></path>
<path d="M 485.281 743.415 C 487.314 743.356 496.359 743.008 497.307 743.824 C 497.319 745.073 493.158 746.251 492.176 746.595 C 488.377 743.51 487.525 745.416 485.281 743.415 z" fill="rgb(57,53,123)" transform="translate(0,0)"></path>
<path d="M 500.4 760.08 C 501.692 759.961 504.017 759.449 504 761.408 C 503.129 762.525 493.184 761.974 491.558 761.919 C 494.568 761.276 497.381 760.813 500.4 760.08 z" fill="rgb(190,189,201)" transform="translate(0,0)"></path>
<path d="M 1548.14 779.535 C 1570.4 788.947 1591.97 799.904 1612.7 812.327 L 1549.01 849.447 C 1551.51 840.248 1553.61 832.304 1556.95 823.332 C 1549.46 823.992 1535.65 823.507 1527.47 823.511 L 1478.36 823.94 C 1481.8 822.406 1485.04 820.744 1488.88 820.866 C 1490.94 818.36 1494.94 815.392 1496.05 813.514 C 1493.63 810.878 1488.77 809.958 1484.94 808.71 L 1481.09 807.226 L 1481.32 806.345 L 1486.19 805.691 L 1556.83 805.107 L 1548.14 779.535 z" fill="rgb(40,124,229)" transform="translate(0,0)"></path>
<path d="M 1488.88 820.866 C 1492.95 825.017 1545.58 821.057 1556.95 823.332 C 1549.46 823.992 1535.65 823.507 1527.47 823.511 L 1478.36 823.94 C 1481.8 822.406 1485.04 820.744 1488.88 820.866 z" fill="rgb(34,134,236)" transform="translate(0,0)"></path>
<path d="M 1613.96 718.387 C 1633.82 725.556 1658.83 739.778 1678.27 749.767 C 1664.51 761.707 1631.17 776.026 1614.01 788.66 C 1615.82 779.594 1617.09 774.972 1620.07 766.198 L 1620.99 763.517 C 1618.97 762.006 1559.7 762.08 1551.92 761.821 C 1560.12 757.377 1564.07 756.245 1573.05 753.157 C 1567.18 749.805 1559.24 746.837 1552.84 744.234 C 1575.35 743.418 1600.96 743.969 1623.64 743.956 L 1613.96 718.387 z" fill="rgb(34,134,236)" transform="translate(0,0)"></path>
<path d="M 1675.13 655.782 C 1697.72 666.077 1718.74 677.689 1740.93 688.157 C 1732.19 694.313 1722.24 699.364 1713.06 704.938 C 1700.72 712.434 1688.67 720.175 1675.98 727.086 C 1678.59 717.962 1681.37 708.637 1683.82 699.493 C 1667.9 699.72 1638.57 699.09 1623.4 700.183 C 1622.66 699.156 1621.9 698.23 1621.11 697.241 C 1628.95 695.377 1631.92 694.298 1638.2 689.334 L 1622.23 683.347 C 1619.9 682.801 1620.26 682.805 1618.07 681.695 C 1622.16 680.517 1627.64 681.038 1632.05 681.156 C 1649.23 681.046 1666.79 681.105 1683.93 680.745 L 1675.13 655.782 z" fill="rgb(34,134,236)" transform="translate(0,0)"></path>
<path d="M 309.046 688.543 C 327.714 678.537 356.422 662.537 375.844 655.481 C 373 663.495 370.328 672.747 367.759 680.94 C 386.267 681.059 404.775 680.983 423.281 680.713 L 421.924 684.385 C 417.052 686.244 412.364 688.016 407.564 690.077 C 411.68 692.399 414.59 694.058 418.963 695.977 L 418.732 699.321 L 366.989 699.913 C 369.814 708.984 372.775 718.012 375.871 726.994 C 355.286 716.25 329.079 700.702 309.046 688.543 z" fill="rgb(55,50,122)" transform="translate(0,0)"></path>
<path d="M 1045.29 1166.92 C 1058.62 1166.84 1168.85 1166.32 1171.82 1168.18 C 1172.28 1171.78 1172.63 1170.19 1171.11 1173.18 C 1165.93 1176.44 1140.98 1174.9 1133.2 1174.9 L 1054.1 1174.92 L 1053.88 1234.28 C 1053.85 1242.22 1053.3 1259.27 1054.46 1266.48 C 1057.32 1268.27 1061.16 1267.88 1064.68 1267.94 L 1062.8 1268.53 C 1060.39 1269.27 1059.3 1269.45 1056.84 1269.84 L 1054.75 1271.56 C 1057.48 1275.04 1060.29 1273.95 1064.23 1274.94 C 1062.96 1274.97 1061.7 1275.02 1060.44 1275.07 C 1049.56 1275.65 1053.69 1282.47 1053.14 1291.09 C 1052.42 1302.09 1056.15 1363.4 1052.23 1367.71 C 1047.99 1367.96 1048.87 1368.55 1045.88 1366.7 C 1044.18 1362.48 1045.29 1183.59 1045.29 1166.92 z" fill="rgb(57,53,123)" transform="translate(0,0)"></path>
<path d="M 1204.91 1156.52 C 1207.96 1156.87 1208.14 1156.61 1210.62 1158.27 C 1211.72 1167.26 1210.98 1194.23 1210.96 1204.44 L 1211.02 1297.77 C 1211.05 1308.64 1210.33 1326.71 1211.73 1336.93 C 1216.18 1369.44 1245.76 1355.89 1253.3 1361.31 C 1253.32 1364.23 1253.69 1362.86 1251.59 1365.3 C 1228.32 1371.65 1202.45 1361.75 1204.04 1339.5 C 1205.48 1319.47 1199.79 1166.41 1204.91 1156.52 z" fill="rgb(57,53,123)" transform="translate(0,0)"></path>
<path d="M 803.547 1249.05 C 812.145 1234.08 822.177 1223.77 839.926 1220.39 C 845.681 1219.3 852.286 1217.77 856.116 1223 C 855.741 1226.49 856.363 1225 854.355 1227.71 C 825.386 1227.64 817.507 1235.28 805.542 1261.36 C 798.678 1276.32 804.969 1363.28 800.185 1367.62 C 796.413 1367.78 796.787 1368.43 794.68 1366.57 C 794.392 1361.86 794.375 1357.15 794.334 1352.44 C 793.958 1309.36 794.157 1266.28 794.425 1223.2 C 794.93 1222.61 795.436 1222.01 795.942 1221.41 C 799.636 1221.13 798.181 1220.59 801.026 1222 C 802.509 1226.44 801.997 1242.39 801.985 1248.1 L 803.547 1249.05 z" fill="rgb(57,53,123)" transform="translate(0,0)"></path>
<path d="M 801.985 1248.1 L 803.547 1249.05 C 803.296 1249.81 803.246 1250.35 802.67 1250.8 C 801.817 1250.62 802.039 1248.4 801.985 1248.1 z" fill="rgb(255,255,255)" transform="translate(0,0)"></path>
<path d="M 1064.68 1267.94 C 1075.17 1267.3 1157.12 1265.62 1161.54 1268.18 C 1163.59 1271.22 1163.21 1269.63 1163.16 1272.96 C 1161.12 1274.63 1160.33 1275.07 1157.38 1275.05 C 1126.56 1274.82 1095.7 1275.44 1064.88 1275.01 C 1064.66 1274.99 1064.44 1274.96 1064.23 1274.94 C 1060.29 1273.95 1057.48 1275.04 1054.75 1271.56 L 1056.84 1269.84 C 1059.3 1269.45 1060.39 1269.27 1062.8 1268.53 L 1064.68 1267.94 z" fill="rgb(68,61,127)" transform="translate(0,0)"></path>
<path d="M 1012.83 958.885 C 1013.5 964.631 1008.7 975.673 1005.67 980.379 C 998.442 991.615 985.473 998.631 972.768 1001.71 C 972.851 999.316 1008.01 963.935 1012.83 958.885 z" fill="rgb(55,50,122)" transform="translate(0,0)"></path>
<path d="M 894.024 940.826 C 900.448 945.97 906.2 953.692 912.625 958.993 C 915.812 961.621 911.052 963.985 908.72 965.971 C 906.645 967.954 904.549 969.915 902.433 971.854 C 896.043 959.272 894.162 955.238 894.024 940.826 z" fill="rgb(55,50,122)" transform="translate(0,0)"></path>
<path d="M 418.963 695.977 C 420.17 696.259 426.255 696.848 426.255 698.156 C 425.47 699.382 420.135 699.232 418.732 699.321 L 418.963 695.977 z" fill="rgb(68,61,127)" transform="translate(0,0)"></path>
<path d="M 423.281 680.713 C 424.406 680.734 427.546 680.488 428.368 681.399 C 428.184 682.186 423.114 683.849 421.924 684.385 L 423.281 680.713 z" fill="rgb(68,61,127)" transform="translate(0,0)"></path>
<path d="M 1237.28 863.946 L 1240.13 864.806 C 1235.97 870.196 1233.43 872.225 1237.28 863.946 z" fill="rgb(40,124,229)" transform="translate(0,0)"></path>
<path d="M 1623.4 700.183 L 1622.16 700.106 C 1617.94 699.877 1616.96 699.623 1621.11 697.241 C 1621.9 698.23 1622.66 699.156 1623.4 700.183 z" fill="rgb(40,124,229)" transform="translate(0,0)"></path>
<path d="M 571.384 820.851 C 572.018 821.445 573.899 822.904 574.39 823.53 L 574.396 823.659 C 573.791 824.266 569.622 824.202 568.635 824.254 L 571.384 820.851 z" fill="rgb(68,61,127)" transform="translate(0,0)"></path>
<metadata><recraft-signature>{"signed_by": "recraft", "signature_b64": "9LLvmkO1VROPDDrcxqpqCwMnatYpQEJf6ViupMbR6aO0Ku4YXcMUA41jtb1hWGLzzrLHeqQRIKrI0pBDf8oRCw==", "signing_algo": "Ed25519", "generation_timestamp": 1776346683, "identifier": "8bd365c7-751f-4d89-9e6f-904e546f2782"}</recraft-signature></metadata></svg>